<?xml version="1.0" encoding="utf-8"?>
<!-- Generator: Adobe Illustrator 18.0.0, SVG Export Plug-In . SVG Version: 6.00 Build 0)  -->
<!DOCTYPE svg PUBLIC "-//W3C//DTD SVG 1.1//EN" "http://www.w3.org/Graphics/SVG/1.1/DTD/svg11.dtd">
<svg version="1.1" id="Layer_1" xmlns="http://www.w3.org/2000/svg" xmlns:xlink="http://www.w3.org/1999/xlink" x="0px" y="0px"
	 viewBox="0 0 634 600" enable-background="new 0 0 634 600" xml:space="preserve">
<title>
	A form of the Triquetra symbol which has the exact geometrical proportions to be composed of three overlapping Vesica piscis symbols (ribbons version)
	</title>
<g transform="translate(-11.44,612.44)scale(1.19,-1.19)">
	<path fill="none" stroke="#D6A618" stroke-width="50" d="M516,69c0,132.5-107.5,240-240,240S36,201.5,36,69
		c36.5-21.1,77.9-32.2,120-32.2c132.5,0,240,107.5,240,240c0,85.7-45.7,165-120,207.8c-74.3-42.9-120-122.1-120-207.8
		c0-132.5,107.5-240,240-240C438.1,36.8,479.5,47.9,516,69z"/>
	<path fill="none" stroke="#D6A618" stroke-width="30" d="M515.9,60.9c0.1,2.7,0.1,5.4,0.1,8.1c0,132.5-107.5,240-240,240
		S36,201.5,36,69c0-2.7,0-5.4,0.1-8.1 M29.1,73.2C67.2,49.4,111.1,36.8,156,36.8c132.5,0,240,107.5,240,240
		c0,88.6-48.9,170.1-127.1,211.8 M283.1,488.6C204.9,446.9,156,365.5,156,276.8c0-132.5,107.5-240,240-240
		c44.9,0,88.8,12.6,126.9,36.3"/>
	<path fill="none" stroke="#D6A618" stroke-width="10" d="M516,66.2c0,0.9,0,1.9,0,2.8c0,132.5-107.5,240-240,240S36,201.5,36,69
		c0-0.9,0-1.9,0-2.8 M33.6,70.4c37.1-22,79.3-33.6,122.4-33.6c132.5,0,240,107.5,240,240c0,86.8-46.8,166.7-122.4,209.2
		 M278.4,486.1C202.8,443.6,156,363.6,156,276.8c0-132.5,107.5-240,240-240c43.1,0,85.4,11.6,122.4,33.6"/>
	<path fill="none" stroke="#D6A618" stroke-width="30" d="M174.6,286.5c-12.7-5.9-24.8-12.9-36.2-20.9 M395.1,255.9
		c0.6,7,0.9,13.9,0.9,20.9s-0.3,14-0.9,20.9 M258.3,80.2c11.4-8,23.6-15,36.2-20.9"/>
	<path fill="none" stroke="#D6A618" stroke-width="10" d="M178.4,288.3c-15.3-6.8-29.9-15.2-43.5-25.1 M394.7,251.8
		c0.9,8.3,1.3,16.7,1.3,25.1s-0.4,16.8-1.3,25.1 M254.9,82.7c13.6-9.9,28.1-18.3,43.5-25.1"/>
</g>
<g transform="translate(-11.44,612.44)scale(1.19,-1.19)">
	<path fill="#112D54" stroke="#D6A618" stroke-width="10" d="M515.1,66.2c0,0.9,0,1.9,0,2.8c0,132.5-107.5,240-240,240
		s-240-107.5-240-240c0-0.9,0-1.9,0-2.8 M32.7,70.4c37.1-22,79.3-33.6,122.4-33.6c132.5,0,240,107.5,240,240
		c0,86.8-46.8,166.7-122.4,209.2 M277.6,486.1C202,443.6,155.2,363.6,155.2,276.8c0-132.5,107.5-240,240-240
		c43.1,0,85.4,11.6,122.4,33.6"/>
	<path fill="#112D54" stroke="#D6A618" stroke-width="50" d="M515.2,69c0,132.5-107.5,240-240,240s-240-107.5-240-240
		c36.5-21.1,77.9-32.2,120-32.2c132.5,0,240,107.5,240,240c0,85.7-45.7,165-120,207.8c-74.3-42.9-120-122.1-120-207.8
		c0-132.5,107.5-240,240-240C437.3,36.8,478.7,47.9,515.2,69z"/>
	<path fill="#112D54" stroke="#D6A618" stroke-width="30" d="M515,60.9c0.1,2.7,0.1,5.4,0.1,8.1c0,132.5-107.5,240-240,240
		s-240-107.5-240-240c0-2.7,0-5.4,0.1-8.1 M28.2,73.2c38.1-23.7,82.1-36.3,126.9-36.3c132.5,0,240,107.5,240,240
		c0,88.6-48.9,170.1-127.1,211.8 M282.2,488.6C204,446.9,155.2,365.5,155.2,276.8c0-132.5,107.5-240,240-240
		c44.9,0,88.8,12.6,126.9,36.3"/>
	<path fill="#112D54" stroke="#D6A618" stroke-width="30" d="M173.7,286.5c-12.7-5.9-24.8-12.9-36.2-20.9 M394.2,255.9
		c0.6,7,0.9,13.9,0.9,20.9s-0.3,14-0.9,20.9 M257.5,80.2c11.4-8,23.6-15,36.2-20.9"/>
	<path fill="#112D54" stroke="#D6A618" stroke-width="10" d="M177.5,288.3c-15.3-6.8-29.9-15.2-43.5-25.1 M393.8,251.8
		c0.9,8.3,1.3,16.7,1.3,25.1s-0.4,16.8-1.3,25.1 M254.1,82.7c13.6-9.9,28.1-18.3,43.5-25.1"/>
</g>
</svg>
